# xmcd
#
# Track frame offsets:
#	150
#	17919
#	34628
#	42800
#	68378
#	83198
#	96643
#	114013
#
# Disc length: 1664 seconds
#
# Revision: 1
# Processed by: cddbd v1.5.2PL0 Copyright (c) Steve Scherf et al.
# Submitted via: audiograbber 1.83.01
#
DISCID=57067e08
DTITLE=Spank The Monkey - Backdoor Santa
DYEAR=2006
DGENRE=R&B
TTITLE0=Backdoor Santa
TTITLE1=Watch Your Step
TTITLE2=Lights Out
TTITLE3=Roosevelt and Ira Lee
TTITLE4=Sleeping With The Devil (Live)
TTITLE5=Mother (Live)
TTITLE6=Shake Your Tree (Live)
TTITLE7=No Particular Place To Go (Live)
EXTD=Limited edition Xmas 2006
EXTT0=
EXTT1=
EXTT2=
EXTT3=
EXTT4=
EXTT5=
EXTT6=
EXTT7=
PLAYORDER=
